# xmcd
#
# Track frame offsets:
#	150
#	4464
#	22989
#	40164
#	40663
#	68562
#	69220
#	85433
#	104807
#	109883
#	118713
#	125239
#	148662
#	162228
#	163097
#	175666
#	187209
#	204947
#	206487
#	221128
#	240629
#	241548
#	253533
#	265736
#	268071
#	284846
#	305418
#	308145
#	327372
#
# Disc length: 4656 seconds
#
# Revision: 1
# Processed by: cddbd v1.5.1PL0 Copyright (c) Steve Scherf et al.
# Submitted via: audiograbber 1.83.01
#
DISCID=b2122e1d
DTITLE=Ol' Dirty Bastard - In Loving Memory of Russell Jones Vol. 1
DYEAR=2004
DGENRE=Hip-Hop
TTITLE0=Russell Jones Intro
TTITLE1=Dirty The Moocher feat. Cab Calloway
TTITLE2=Rollin With You
TTITLE3=Seed Skit
TTITLE4=Harlem World
TTITLE5=ODB Skit 1
TTITLE6=Pop Shots
TTITLE7=Shining Star feat. Sunz of Man
TTITLE8=Ol' Dirty Bastard Interlude 1
TTITLE9=Goin Down
TTITLE10=Osirus Interlude 2
TTITLE11=Diesel feat. Wu Tang Clan
TTITLE12=Fast Shadow feat. Wu Tang Clan
TTITLE13=Unique Ason Skit 2
TTITLE14=Kiss of a Black Widow feat. RZA
TTITLE15=Black Mamba feat. Masta Killa and RZA
TTITLE16=Conditioner feat. Snoop Dogg
TTITLE17=Big Baby Jesus Skit 3
TTITLE18=Ol' Dirty on Stretch and Bobbito Show
TTITLE19=Woo Ha! feat. Busta Rhymes (Remix)
TTITLE20=Dirt Dog Skit 5
TTITLE21=Dog Shit
TTITLE22=Dirty Dancin feat. Method Man
TTITLE23=Osiris Skit 6
TTITLE24=Anything feat. SWV and Wu Tang Clan
TTITLE25=Fantasy feat. Mariah Carey
TTITLE26=Dirt McGirt Skit 7
TTITLE27=Good Morning Heartache feat. Lil Mo
TTITLE28=So Good feat. Davina and La Tha Darkman (Re-Remix)
EXTD=
EXTT0=
EXTT1=
EXTT2=
EXTT3=
EXTT4=
EXTT5=
EXTT6=
EXTT7=
EXTT8=
EXTT9=
EXTT10=
EXTT11=
EXTT12=
EXTT13=
EXTT14=
EXTT15=
EXTT16=
EXTT17=
EXTT18=
EXTT19=
EXTT20=
EXTT21=
EXTT22=
EXTT23=
EXTT24=
EXTT25=
EXTT26=
EXTT27=
EXTT28=
PLAYORDER=
